<svg version="1.1" id="Layer_1" xmlns="http://www.w3.org/2000/svg" xmlns:xlink="http://www.w3.org/1999/xlink" x="0px" y="0px"
	 width="100%" viewBox="0 0 500 500" enable-background="new 0 0 500 500" xml:space="preserve">
<path fill="#545454" opacity="1.000000" stroke="none" 
	d="
M223.000000,501.000000 
	C148.666687,501.000000 74.833366,501.000000 1.000040,501.000000 
	C1.000026,334.333405 1.000026,167.666779 1.000013,1.000129 
	C167.666565,1.000086 334.333130,1.000086 500.999756,1.000043 
	C500.999847,167.666534 500.999847,334.333069 500.999939,500.999817 
	C408.500000,501.000000 316.000000,501.000000 223.000000,501.000000 
M214.078430,145.598053 
	C209.527466,144.585251 207.505554,148.074997 205.191818,150.782089 
	C202.592682,153.823120 199.861267,155.746399 195.679047,154.001251 
	C193.999466,153.300385 192.207123,152.608978 190.422455,152.468735 
	C184.617508,152.012558 182.221924,148.871292 181.332672,143.247375 
	C180.109589,135.512283 178.881973,134.979584 169.403290,134.993912 
	C161.327530,135.006119 160.329239,135.870178 158.521164,143.525009 
	C157.964722,145.880798 157.469803,149.459259 155.915863,150.146317 
	C151.123367,152.265244 145.880829,154.018158 140.714371,154.343033 
	C138.399338,154.488586 135.478546,151.218475 133.489090,148.928177 
	C130.153214,145.087891 126.708611,144.519287 122.506210,147.113205 
	C120.806587,148.162292 119.075386,149.161331 117.342674,150.155457 
	C113.571388,152.319214 112.141708,155.605743 114.154922,159.411987 
	C117.570274,165.869125 116.748848,170.914398 110.366501,174.779114 
	C110.228127,174.862915 110.101288,174.993652 110.014771,175.131226 
	C106.195679,181.204926 101.242561,182.289780 94.968651,178.865997 
	C92.086922,177.293350 88.752754,177.374619 86.877197,180.289078 
	C84.092087,184.616882 79.653351,188.502655 81.351807,194.587448 
	C81.559898,195.332962 82.156815,196.195831 82.817719,196.554840 
	C91.417152,201.226166 91.075539,208.066467 87.587013,215.714996 
	C87.518509,215.865173 87.444748,216.033997 87.447807,216.192703 
	C87.546082,221.271942 84.576134,222.673798 80.015907,223.454056 
	C71.051109,224.987930 70.268570,226.321167 70.465401,235.382217 
	C70.490669,236.545410 70.722542,237.709656 70.684692,238.867722 
	C70.552292,242.919312 72.716736,245.560471 76.457420,245.683517 
	C84.349960,245.943130 88.137878,249.741776 88.357079,257.463440 
	C88.366074,257.780151 88.524948,258.116119 88.687126,258.401520 
	C91.777512,263.840240 90.080757,267.571503 85.244743,271.278381 
	C79.279434,275.850922 79.458984,277.619110 83.972748,285.338043 
	C88.019890,292.259003 89.679024,293.328644 96.231796,290.531494 
	C101.820221,288.145996 105.957451,288.422699 109.127960,293.904480 
	C109.209702,294.045837 109.322372,294.193207 109.458252,294.275940 
	C116.377258,298.489655 117.755089,304.053894 113.978996,311.236450 
	C112.214264,314.593079 113.807602,317.373901 116.760841,319.344513 
	C118.558685,320.544098 120.506966,321.515961 122.332298,322.677185 
	C126.741302,325.482117 130.746338,325.045715 133.558411,320.605988 
	C137.083862,315.039978 141.369522,313.525238 147.185379,316.825836 
	C147.460983,316.982239 147.829910,317.019409 148.158218,317.030945 
	C155.284149,317.281769 158.710327,320.909515 159.036682,328.091400 
	C159.239899,332.563263 162.131836,334.905396 166.712402,334.904388 
	C168.876602,334.903900 171.040802,334.909607 173.205002,334.911926 
	C177.684143,334.916748 180.834015,332.902740 181.031372,328.303131 
	C181.348175,320.919281 185.217911,318.485870 192.113235,316.619934 
	C198.900162,314.783325 203.125656,315.167633 207.169601,321.071869 
	C208.424820,322.904541 212.118530,324.426941 214.315842,324.023224 
	C224.837646,322.089844 227.976181,316.281708 224.651016,306.261108 
	C224.546173,305.945160 224.442978,305.624054 224.293930,305.328033 
	C222.889648,302.539307 223.515076,300.463776 226.037460,298.499603 
	C228.409653,296.652435 230.380722,294.290131 232.528290,292.154449 
	C232.290817,291.489380 232.053360,290.824341 231.815887,290.159271 
	C225.938568,290.159271 220.037811,289.843903 214.192734,290.277985 
	C210.706970,290.536865 206.966568,291.338379 203.925552,292.979675 
	C181.638947,305.008514 159.163895,305.647797 137.197983,293.100403 
	C115.066238,280.458221 103.402534,260.577911 103.371765,235.136566 
	C103.341042,209.738815 114.748039,189.748093 136.884811,176.997131 
	C159.191391,164.148376 181.941025,164.884323 204.448730,177.270340 
	C213.143250,182.054962 222.387131,179.894806 231.492767,178.805801 
	C231.650833,178.786896 231.747131,178.251617 231.872253,177.957275 
	C232.434753,177.393448 232.997269,176.829605 233.559769,176.265762 
	C231.433899,174.952850 229.316208,173.626465 227.180359,172.330002 
	C223.393631,170.031479 223.218918,167.204590 224.727325,163.115631 
	C228.222183,153.641739 227.658325,152.756088 218.797729,147.816452 
	C217.493896,147.089569 216.127548,146.474808 214.078430,145.598053 
M108.814590,231.407578 
	C103.846840,241.240585 108.102936,249.601990 118.938080,251.068436 
	C123.489059,251.684357 128.078522,252.124985 132.663986,252.309433 
	C134.011215,252.363617 135.949799,251.646164 136.667206,250.618851 
	C138.320038,248.251968 139.654755,245.573837 140.640869,242.849106 
	C142.668976,237.245255 140.578262,231.256668 135.893219,228.322433 
	C128.854767,223.914291 115.423691,225.170074 108.814590,231.407578 
M281.000671,231.493927 
	C282.968903,230.019241 284.937164,228.544556 287.021973,226.982544 
	C274.858795,222.492432 268.239685,232.308319 258.838135,236.789185 
	C258.658020,233.840256 258.475708,231.610687 258.395203,229.377441 
	C258.238007,225.017044 254.954544,226.298508 252.534851,226.136520 
	C250.061905,225.970963 247.843750,226.108597 247.972626,229.639374 
	C248.130081,233.953171 247.992828,238.277527 247.992340,242.597321 
	C247.991302,251.764221 247.993790,251.764221 257.506958,250.633469 
	C260.124817,244.111557 263.886536,240.379318 270.414520,247.274017 
	C275.165497,252.291840 280.920563,251.168671 287.926392,250.507904 
	C281.887939,246.120041 276.861267,242.467392 271.176788,238.336761 
	C274.765991,235.836502 277.591003,233.868576 281.000671,231.493927 
M156.991333,226.527023 
	C147.862366,225.375351 147.851685,225.375381 147.872421,234.086899 
	C147.877960,236.415405 147.343872,239.000763 148.169113,241.012115 
	C149.420624,244.062454 150.988251,247.825912 153.566025,249.347229 
	C166.576752,257.025726 179.643005,249.501953 179.689377,234.718369 
	C179.695114,232.888351 179.891785,231.010727 179.542679,229.245621 
	C179.328766,228.164200 178.447647,226.706635 177.515350,226.359146 
	C172.087112,224.335754 169.140045,226.516525 169.104294,232.320694 
	C169.091995,234.317490 169.086121,236.314331 169.070023,238.311096 
	C169.041275,241.880112 167.885452,244.664001 163.787521,244.750214 
	C159.695679,244.836258 158.407425,242.094254 158.213730,238.543716 
	C158.006195,234.739395 157.837921,230.932938 156.991333,226.527023 
M216.129501,226.453293 
	C208.449814,228.981491 205.297928,233.294296 206.038467,240.261154 
	C206.681915,246.314621 210.955399,250.502350 218.410263,251.010971 
	C223.273346,251.342758 228.334671,250.785172 233.107986,249.727203 
	C236.441544,248.988312 239.256714,246.578278 239.612778,241.053833 
	C234.848541,242.189713 230.629944,243.047226 226.502731,244.224976 
	C223.005127,245.223068 219.439240,245.388748 217.690430,241.999069 
	C216.703690,240.086502 216.842010,236.506454 218.050034,234.781784 
	C220.348465,231.500336 223.987671,232.412796 227.568115,233.500107 
	C231.301498,234.633865 235.288666,234.931870 240.105408,235.756241 
	C238.596497,230.315216 235.849976,227.740280 232.190125,227.145721 
	C227.181366,226.332016 222.012314,226.505096 216.129501,226.453293 
M323.626129,232.315277 
	C327.715302,232.315277 331.804443,232.315277 336.263794,232.315277 
	C336.080536,229.720535 335.958313,227.989883 335.837646,226.281052 
	C326.332214,226.281052 317.359161,226.281052 308.131226,226.281052 
	C308.131226,234.539536 308.131226,242.601898 308.131226,250.685760 
	C311.554688,250.685760 314.640472,250.685760 317.903015,250.685760 
	C318.074432,247.442780 318.229370,244.511444 318.411469,241.066116 
	C323.415314,241.066116 328.165375,241.066116 333.386627,241.066116 
	C333.276031,239.136353 333.197662,237.769272 333.102203,236.103348 
	C329.325226,236.103348 325.996216,236.287399 322.703674,236.021164 
	C321.189789,235.898743 319.747284,234.893585 318.272430,234.288712 
	C319.742096,233.631592 321.211761,232.974472 323.626129,232.315277 
M365.821533,251.015869 
	C372.443909,253.051620 374.679352,246.520660 379.182922,243.744583 
	C383.230560,249.386597 387.937866,253.097214 395.535400,250.272461 
	C391.448303,246.463669 387.491455,242.776276 382.455170,238.082962 
	C387.285675,233.870758 391.320343,230.352524 395.397247,226.797455 
	C387.651672,223.829361 383.089905,228.322922 378.615997,233.320251 
	C374.203674,227.712509 369.504425,223.982666 361.810852,226.985962 
	C365.876099,230.966309 369.629608,234.641449 374.773621,239.678085 
	C370.282257,243.277878 366.087158,246.640198 360.978363,250.734894 
	C363.395996,250.902588 364.200317,250.958389 365.821533,251.015869 
M189.934311,250.955856 
	C199.329483,251.087875 197.816910,251.449265 197.949692,243.008591 
	C198.017731,238.683640 197.792511,234.348923 197.997986,230.032837 
	C198.172638,226.364655 196.089890,226.000961 193.275620,226.093994 
	C190.467834,226.186813 187.367722,225.508194 187.463562,230.022308 
	C187.587158,235.843140 187.423141,241.670578 187.580811,247.489807 
	C187.611374,248.617706 188.550369,249.721008 189.934311,250.955856 
M351.162811,226.100510 
	C348.913635,226.100510 346.664490,226.100510 344.394409,226.100510 
	C344.394409,234.792435 344.394409,242.786926 344.394409,250.673492 
	C347.859528,250.673492 350.924591,250.673492 354.385864,250.673492 
	C354.385864,243.094208 354.461945,235.835327 354.282715,228.582748 
	C354.261963,227.743088 352.823395,226.938477 351.162811,226.100510 
z"/>
<path fill="#0101FD" opacity="1.000000" stroke="none" 
	d="
M214.434280,145.703110 
	C216.127548,146.474808 217.493896,147.089569 218.797729,147.816452 
	C227.658325,152.756088 228.222183,153.641739 224.727325,163.115631 
	C223.218918,167.204590 223.393631,170.031479 227.180359,172.330002 
	C229.316208,173.626465 231.433899,174.952850 233.559769,176.265762 
	C232.997269,176.829605 232.434753,177.393448 231.872253,177.957275 
	C231.747131,178.251617 231.650833,178.786896 231.492767,178.805801 
	C222.387131,179.894806 213.143250,182.054962 204.448730,177.270340 
	C181.941025,164.884323 159.191391,164.148376 136.884811,176.997131 
	C114.748039,189.748093 103.341042,209.738815 103.371765,235.136566 
	C103.402534,260.577911 115.066238,280.458221 137.197983,293.100403 
	C159.163895,305.647797 181.638947,305.008514 203.925552,292.979675 
	C206.966568,291.338379 210.706970,290.536865 214.192734,290.277985 
	C220.037811,289.843903 225.938568,290.159271 231.815887,290.159271 
	C232.053360,290.824341 232.290817,291.489380 232.528290,292.154449 
	C230.380722,294.290131 228.409653,296.652435 226.037460,298.499603 
	C223.515076,300.463776 222.889648,302.539307 224.293930,305.328033 
	C224.442978,305.624054 224.546173,305.945160 224.651016,306.261108 
	C227.976181,316.281708 224.837646,322.089844 214.315842,324.023224 
	C212.118530,324.426941 208.424820,322.904541 207.169601,321.071869 
	C203.125656,315.167633 198.900162,314.783325 192.113235,316.619934 
	C185.217911,318.485870 181.348175,320.919281 181.031372,328.303131 
	C180.834015,332.902740 177.684143,334.916748 173.205002,334.911926 
	C171.040802,334.909607 168.876602,334.903900 166.712402,334.904388 
	C162.131836,334.905396 159.239899,332.563263 159.036682,328.091400 
	C158.710327,320.909515 155.284149,317.281769 148.158218,317.030945 
	C147.829910,317.019409 147.460983,316.982239 147.185379,316.825836 
	C141.369522,313.525238 137.083862,315.039978 133.558411,320.605988 
	C130.746338,325.045715 126.741302,325.482117 122.332298,322.677185 
	C120.506966,321.515961 118.558685,320.544098 116.760841,319.344513 
	C113.807602,317.373901 112.214264,314.593079 113.978996,311.236450 
	C117.755089,304.053894 116.377258,298.489655 109.458252,294.275940 
	C109.322372,294.193207 109.209702,294.045837 109.127960,293.904480 
	C105.957451,288.422699 101.820221,288.145996 96.231796,290.531494 
	C89.679024,293.328644 88.019890,292.259003 83.972748,285.338043 
	C79.458984,277.619110 79.279434,275.850922 85.244743,271.278381 
	C90.080757,267.571503 91.777512,263.840240 88.687126,258.401520 
	C88.524948,258.116119 88.366074,257.780151 88.357079,257.463440 
	C88.137878,249.741776 84.349960,245.943130 76.457420,245.683517 
	C72.716736,245.560471 70.552292,242.919312 70.684692,238.867722 
	C70.722542,237.709656 70.490669,236.545410 70.465401,235.382217 
	C70.268570,226.321167 71.051109,224.987930 80.015907,223.454056 
	C84.576134,222.673798 87.546082,221.271942 87.447807,216.192703 
	C87.444748,216.033997 87.518509,215.865173 87.587013,215.714996 
	C91.075539,208.066467 91.417152,201.226166 82.817719,196.554840 
	C82.156815,196.195831 81.559898,195.332962 81.351807,194.587448 
	C79.653351,188.502655 84.092087,184.616882 86.877197,180.289078 
	C88.752754,177.374619 92.086922,177.293350 94.968651,178.865997 
	C101.242561,182.289780 106.195679,181.204926 110.014771,175.131226 
	C110.101288,174.993652 110.228127,174.862915 110.366501,174.779114 
	C116.748848,170.914398 117.570274,165.869125 114.154922,159.411987 
	C112.141708,155.605743 113.571388,152.319214 117.342674,150.155457 
	C119.075386,149.161331 120.806587,148.162292 122.506210,147.113205 
	C126.708611,144.519287 130.153214,145.087891 133.489090,148.928177 
	C135.478546,151.218475 138.399338,154.488586 140.714371,154.343033 
	C145.880829,154.018158 151.123367,152.265244 155.915863,150.146317 
	C157.469803,149.459259 157.964722,145.880798 158.521164,143.525009 
	C160.329239,135.870178 161.327530,135.006119 169.403290,134.993912 
	C178.881973,134.979584 180.109589,135.512283 181.332672,143.247375 
	C182.221924,148.871292 184.617508,152.012558 190.422455,152.468735 
	C192.207123,152.608978 193.999466,153.300385 195.679047,154.001251 
	C199.861267,155.746399 202.592682,153.823120 205.191818,150.782089 
	C207.505554,148.074997 209.527466,144.585251 214.434280,145.703110 
z"/>
<path fill="#020202" opacity="1.000000" stroke="none" 
	d="
M109.033165,231.110474 
	C115.423691,225.170074 128.854767,223.914291 135.893219,228.322433 
	C140.578262,231.256668 142.668976,237.245255 140.640869,242.849106 
	C139.654755,245.573837 138.320038,248.251968 136.667206,250.618851 
	C135.949799,251.646164 134.011215,252.363617 132.663986,252.309433 
	C128.078522,252.124985 123.489059,251.684357 118.938080,251.068436 
	C108.102936,249.601990 103.846840,241.240585 109.033165,231.110474 
M124.351929,242.433792 
	C125.537224,242.200012 126.781921,242.118988 127.890450,241.687820 
	C128.917389,241.288406 130.315247,240.718658 130.650986,239.868851 
	C131.837585,236.865433 129.416199,233.367416 125.878372,232.548370 
	C121.624825,231.563644 117.763924,233.803177 117.155823,237.607895 
	C116.606918,241.042313 119.068550,244.418076 122.467888,244.616257 
	C123.025925,244.648788 123.646393,243.610306 124.351929,242.433792 
z"/>
<path fill="#020202" opacity="1.000000" stroke="none" 
	d="
M280.708344,231.697296 
	C277.591003,233.868576 274.765991,235.836502 271.176788,238.336761 
	C276.861267,242.467392 281.887939,246.120041 287.926392,250.507904 
	C280.920563,251.168671 275.165497,252.291840 270.414520,247.274017 
	C263.886536,240.379318 260.124817,244.111557 257.506958,250.633469 
	C247.993790,251.764221 247.991302,251.764221 247.992340,242.597321 
	C247.992828,238.277527 248.130081,233.953171 247.972626,229.639374 
	C247.843750,226.108597 250.061905,225.970963 252.534851,226.136520 
	C254.954544,226.298508 258.238007,225.017044 258.395203,229.377441 
	C258.475708,231.610687 258.658020,233.840256 258.838135,236.789185 
	C268.239685,232.308319 274.858795,222.492432 287.021973,226.982544 
	C284.937164,228.544556 282.968903,230.019241 280.708344,231.697296 
z"/>
<path fill="#030303" opacity="1.000000" stroke="none" 
	d="
M157.321930,226.827209 
	C157.837921,230.932938 158.006195,234.739395 158.213730,238.543716 
	C158.407425,242.094254 159.695679,244.836258 163.787521,244.750214 
	C167.885452,244.664001 169.041275,241.880112 169.070023,238.311096 
	C169.086121,236.314331 169.091995,234.317490 169.104294,232.320694 
	C169.140045,226.516525 172.087112,224.335754 177.515350,226.359146 
	C178.447647,226.706635 179.328766,228.164200 179.542679,229.245621 
	C179.891785,231.010727 179.695114,232.888351 179.689377,234.718369 
	C179.643005,249.501953 166.576752,257.025726 153.566025,249.347229 
	C150.988251,247.825912 149.420624,244.062454 148.169113,241.012115 
	C147.343872,239.000763 147.877960,236.415405 147.872421,234.086899 
	C147.851685,225.375381 147.862366,225.375351 157.321930,226.827209 
z"/>
<path fill="#020202" opacity="1.000000" stroke="none" 
	d="
M216.520721,226.354248 
	C222.012314,226.505096 227.181366,226.332016 232.190125,227.145721 
	C235.849976,227.740280 238.596497,230.315216 240.105408,235.756241 
	C235.288666,234.931870 231.301498,234.633865 227.568115,233.500107 
	C223.987671,232.412796 220.348465,231.500336 218.050034,234.781784 
	C216.842010,236.506454 216.703690,240.086502 217.690430,241.999069 
	C219.439240,245.388748 223.005127,245.223068 226.502731,244.224976 
	C230.629944,243.047226 234.848541,242.189713 239.612778,241.053833 
	C239.256714,246.578278 236.441544,248.988312 233.107986,249.727203 
	C228.334671,250.785172 223.273346,251.342758 218.410263,251.010971 
	C210.955399,250.502350 206.681915,246.314621 206.038467,240.261154 
	C205.297928,233.294296 208.449814,228.981491 216.520721,226.354248 
z"/>
<path fill="#F7CA12" opacity="1.000000" stroke="none" 
	d="
M323.153748,232.316315 
	C321.211761,232.974472 319.742096,233.631592 318.272430,234.288696 
	C319.747284,234.893585 321.189789,235.898743 322.703674,236.021164 
	C325.996216,236.287399 329.325226,236.103348 333.102203,236.103348 
	C333.197662,237.769272 333.276031,239.136353 333.386627,241.066116 
	C328.165375,241.066116 323.415314,241.066116 318.411469,241.066116 
	C318.229370,244.511444 318.074432,247.442780 317.903015,250.685760 
	C314.640472,250.685760 311.554688,250.685760 308.131226,250.685760 
	C308.131226,242.601898 308.131226,234.539536 308.131226,226.281052 
	C317.359161,226.281052 326.332214,226.281052 335.837646,226.281052 
	C335.958313,227.989883 336.080536,229.720535 336.263794,232.315277 
	C331.804443,232.315277 327.715302,232.315277 323.153748,232.316315 
z"/>
<path fill="#F6C913" opacity="1.000000" stroke="none" 
	d="
M365.413086,251.015015 
	C364.200317,250.958389 363.395996,250.902588 360.978363,250.734894 
	C366.087158,246.640198 370.282257,243.277878 374.773621,239.678085 
	C369.629608,234.641449 365.876099,230.966309 361.810852,226.985962 
	C369.504425,223.982666 374.203674,227.712509 378.615997,233.320251 
	C383.089905,228.322922 387.651672,223.829361 395.397247,226.797455 
	C391.320343,230.352524 387.285675,233.870758 382.455170,238.082962 
	C387.491455,242.776276 391.448303,246.463669 395.535400,250.272461 
	C387.937866,253.097214 383.230560,249.386597 379.182922,243.744583 
	C374.679352,246.520660 372.443909,253.051620 365.413086,251.015015 
z"/>
<path fill="#020202" opacity="1.000000" stroke="none" 
	d="
M189.502319,250.895752 
	C188.550369,249.721008 187.611374,248.617706 187.580811,247.489807 
	C187.423141,241.670578 187.587158,235.843140 187.463562,230.022308 
	C187.367722,225.508194 190.467834,226.186813 193.275620,226.093994 
	C196.089890,226.000961 198.172638,226.364655 197.997986,230.032837 
	C197.792511,234.348923 198.017731,238.683640 197.949692,243.008591 
	C197.816910,251.449265 199.329483,251.087875 189.502319,250.895752 
z"/>
<path fill="#FACC12" opacity="1.000000" stroke="none" 
	d="
M351.602478,226.109055 
	C352.823395,226.938477 354.261963,227.743088 354.282715,228.582748 
	C354.461945,235.835327 354.385864,243.094208 354.385864,250.673492 
	C350.924591,250.673492 347.859528,250.673492 344.394409,250.673492 
	C344.394409,242.786926 344.394409,234.792435 344.394409,226.100510 
	C346.664490,226.100510 348.913635,226.100510 351.602478,226.109055 
z"/>
<path fill="#4F4F4F" opacity="1.000000" stroke="none" 
	d="
M124.294968,242.750305 
	C123.646393,243.610306 123.025925,244.648788 122.467888,244.616257 
	C119.068550,244.418076 116.606918,241.042313 117.155823,237.607895 
	C117.763924,233.803177 121.624825,231.563644 125.878372,232.548370 
	C129.416199,233.367416 131.837585,236.865433 130.650986,239.868851 
	C130.315247,240.718658 128.917389,241.288406 127.890450,241.687820 
	C126.781921,242.118988 125.537224,242.200012 124.294968,242.750305 
z"/>
</svg>